<svg width="110" height="40" viewBox="0 0 110 40" fill="none" xmlns="http://www.w3.org/2000/svg">
<path d="M31.0048 2.66335V0.454545H42.6099V2.66335H38.1142V15H35.5006V2.66335H31.0048ZM44.5572 15H41.7447L46.8655 0.454545H50.1183L55.2462 15H52.4337L48.5487 3.4375H48.4351L44.5572 15ZM44.6496 9.29688H52.32V11.4134H44.6496V9.29688ZM56.762 15V0.454545H59.3969V12.7912H65.8032V15H56.762ZM67.6901 15V0.454545H70.3251V7.13778H70.5026L76.1773 0.454545H79.3947L73.7697 6.98153L79.4444 15H76.2768L71.9373 8.7642L70.3251 10.6676V15H67.6901ZM3.36935 39H0.556852L5.67759 24.4545H8.93043L14.0583 39H11.2458L7.36083 27.4375H7.24719L3.36935 39ZM3.46168 33.2969H11.1321V35.4134H3.46168V33.2969ZM15.5741 39V24.4545H21.1423C22.1934 24.4545 23.067 24.6203 23.763 24.9517C24.4638 25.2784 24.987 25.7259 25.3326 26.294C25.683 26.8622 25.8582 27.5062 25.8582 28.2259C25.8582 28.8177 25.7446 29.3243 25.5173 29.7457C25.29 30.1624 24.9846 30.5009 24.6011 30.7614C24.2176 31.0218 23.7891 31.2088 23.3156 31.3224V31.4645C23.8317 31.4929 24.3265 31.6515 24.8 31.9403C25.2782 32.2244 25.6688 32.6269 25.9718 33.1477C26.2749 33.6686 26.4264 34.2983 26.4264 35.0369C26.4264 35.7898 26.2441 36.4669 25.8795 37.0682C25.5149 37.6648 24.9657 38.1359 24.2318 38.4815C23.4979 38.8272 22.5746 39 21.4619 39H15.5741ZM18.2091 36.7983H21.0429C21.9993 36.7983 22.6882 36.616 23.1096 36.2514C23.5358 35.8821 23.7488 35.4086 23.7488 34.831C23.7488 34.4001 23.6423 34.0118 23.4292 33.6662C23.2162 33.3158 22.9131 33.0412 22.5201 32.8423C22.1271 32.6387 21.6584 32.5369 21.1139 32.5369H18.2091V36.7983ZM18.2091 30.6406H20.8156C21.2701 30.6406 21.6797 30.5578 22.0443 30.392C22.4089 30.2216 22.6953 29.9825 22.9037 29.6747C23.1167 29.3622 23.2233 28.9929 23.2233 28.5668C23.2233 28.0033 23.0244 27.5393 22.6267 27.1747C22.2337 26.8101 21.6489 26.6278 20.8724 26.6278H18.2091V30.6406ZM41.3158 31.7273C41.3158 33.2945 41.0222 34.6368 40.4351 35.7543C39.8527 36.867 39.0573 37.7192 38.0488 38.3111C37.045 38.9029 35.9062 39.1989 34.6326 39.1989C33.3589 39.1989 32.2178 38.9029 31.2093 38.3111C30.2055 37.7145 29.41 36.8598 28.8229 35.7472C28.2405 34.6297 27.9493 33.2898 27.9493 31.7273C27.9493 30.16 28.2405 28.8201 28.8229 27.7074C29.41 26.59 30.2055 25.7353 31.2093 25.1435C32.2178 24.5516 33.3589 24.2557 34.6326 24.2557C35.9062 24.2557 37.045 24.5516 38.0488 25.1435C39.0573 25.7353 39.8527 26.59 40.4351 27.7074C41.0222 28.8201 41.3158 30.16 41.3158 31.7273ZM38.6667 31.7273C38.6667 30.6241 38.4938 29.6937 38.1482 28.9361C37.8073 28.1738 37.3338 27.5985 36.7277 27.2102C36.1217 26.8172 35.4233 26.6207 34.6326 26.6207C33.8418 26.6207 33.1435 26.8172 32.5374 27.2102C31.9313 27.5985 31.4555 28.1738 31.1098 28.9361C30.7689 29.6937 30.5985 30.6241 30.5985 31.7273C30.5985 32.8305 30.7689 33.7633 31.1098 34.5256C31.4555 35.2831 31.9313 35.8584 32.5374 36.2514C33.1435 36.6397 33.8418 36.8338 34.6326 36.8338C35.4233 36.8338 36.1217 36.6397 36.7277 36.2514C37.3338 35.8584 37.8073 35.2831 38.1482 34.5256C38.4938 33.7633 38.6667 32.8305 38.6667 31.7273ZM52.576 24.4545H55.2109V33.9574C55.2109 34.9991 54.9647 35.9152 54.4723 36.706C53.9846 37.4967 53.298 38.1146 52.4126 38.5597C51.5272 39 50.4926 39.2202 49.3089 39.2202C48.1205 39.2202 47.0835 39 46.1981 38.5597C45.3127 38.1146 44.6261 37.4967 44.1385 36.706C43.6508 35.9152 43.4069 34.9991 43.4069 33.9574V24.4545H46.0419V33.7372C46.0419 34.3433 46.1744 34.883 46.4396 35.3565C46.7095 35.83 47.0883 36.2017 47.576 36.4716C48.0636 36.7367 48.6413 36.8693 49.3089 36.8693C49.9765 36.8693 50.5542 36.7367 51.0419 36.4716C51.5343 36.2017 51.9131 35.83 52.1782 35.3565C52.4434 34.883 52.576 34.3433 52.576 33.7372V24.4545ZM57.0357 26.6634V24.4545H68.6408V26.6634H64.1451V39H61.5314V26.6634H57.0357ZM76.9069 39H74.0944L79.2151 24.4545H82.4679L87.5958 39H84.7833L80.8983 27.4375H80.7847L76.9069 39ZM76.9992 33.2969H84.6696V35.4134H76.9992V33.2969ZM89.1116 39V24.4545H91.7466V36.7912H98.1528V39H89.1116ZM100.04 39V24.4545H102.675V36.7912H109.081V39H100.04Z" fill="#F1F2F3"/>
</svg>
