<svg width="263" height="130" viewBox="0 0 263 130" fill="none" xmlns="http://www.w3.org/2000/svg">
<path d="M5.59066 129.044C6.89818 129.044 8.21688 128.585 9.27855 127.652L100.431 47.4015L157.995 104.96C160.18 107.145 163.712 107.145 165.896 104.96C168.081 102.776 168.081 99.2443 165.896 97.0595L139.036 70.1994L190.337 14.0206L253.26 71.7025C255.534 73.7867 259.071 73.6302 261.156 71.356C263.24 69.0818 263.089 65.5448 260.809 63.4606L193.757 1.99585C192.661 0.995648 191.203 0.498336 189.734 0.531862C188.253 0.598915 186.856 1.25268 185.856 2.34787L131.13 62.2872L104.627 35.7847C102.537 33.7005 99.1959 33.5943 96.9832 35.5388L1.89719 119.259C-0.421709 121.299 -0.645218 124.83 1.39429 127.149C2.50066 128.407 4.04287 129.044 5.59066 129.044Z" fill="#C6C7D0"/>
</svg>
